<svg width="100" height="100" viewBox="0 0 100 100" fill="none" xmlns="http://www.w3.org/2000/svg">
<mask id="path-1-inside-1_13_174" fill="white">
<path d="M80.9449 57.044C81.1685 59.9949 80.71 62.9554 79.5982 65.7404C78.4863 68.5253 76.745 71.0748 74.4831 73.2294C72.2211 75.384 69.4873 77.0973 66.4526 78.2622C63.4178 79.4271 60.1474 80.0186 56.8458 79.9996C53.5442 79.9806 50.2825 79.3515 47.2647 78.1517C44.2469 76.952 41.5379 75.2073 39.3071 73.0269C37.0763 70.8465 35.3717 68.2771 34.2998 65.4796C33.228 62.6821 32.8121 59.7166 33.078 56.7684L38.1239 57.1337C37.9141 59.4599 38.2423 61.8 39.088 64.0074C39.9338 66.2148 41.2788 68.2422 43.0391 69.9627C44.7994 71.6832 46.937 73.0599 49.3182 74.0066C51.6995 74.9533 54.2732 75.4496 56.8783 75.4646C59.4835 75.4796 62.0641 75.0129 64.4587 74.0937C66.8533 73.1745 69.0105 71.8226 70.7953 70.1225C72.5801 68.4224 73.9541 66.4107 74.8315 64.2131C75.7088 62.0156 76.0706 59.6796 75.8942 57.3511L80.9449 57.044Z"/>
</mask>
<path d="M80.9449 57.044C81.1685 59.9949 80.71 62.9554 79.5982 65.7404C78.4863 68.5253 76.745 71.0748 74.4831 73.2294C72.2211 75.384 69.4873 77.0973 66.4526 78.2622C63.4178 79.4271 60.1474 80.0186 56.8458 79.9996C53.5442 79.9806 50.2825 79.3515 47.2647 78.1517C44.2469 76.952 41.5379 75.2073 39.3071 73.0269C37.0763 70.8465 35.3717 68.2771 34.2998 65.4796C33.228 62.6821 32.8121 59.7166 33.078 56.7684L38.1239 57.1337C37.9141 59.4599 38.2423 61.8 39.088 64.0074C39.9338 66.2148 41.2788 68.2422 43.0391 69.9627C44.7994 71.6832 46.937 73.0599 49.3182 74.0066C51.6995 74.9533 54.2732 75.4496 56.8783 75.4646C59.4835 75.4796 62.0641 75.0129 64.4587 74.0937C66.8533 73.1745 69.0105 71.8226 70.7953 70.1225C72.5801 68.4224 73.9541 66.4107 74.8315 64.2131C75.7088 62.0156 76.0706 59.6796 75.8942 57.3511L80.9449 57.044Z" fill="white" stroke="#00897b" stroke-width="10" mask="url(#path-1-inside-1_13_174)"/>
<path d="M35.5201 57.297V57.297C35.9246 53.49 36.8917 49.6173 38.3838 45.8841V45.8841" stroke="#00897b" stroke-width="5"/>
<path d="M78.4696 57.8163L78.4688 57.1975C78.4641 53.5773 77.9084 49.8888 76.8182 46.2415V46.2415" stroke="#00897b" stroke-width="5"/>
<path d="M38 47L39.3296 42.5365C40.1956 39.6294 41.4695 36.8599 43.1134 34.3106L43.9953 32.943C44.5646 32.0601 45.2205 31.2362 45.9533 30.4836L46.5107 29.9111C53.0701 23.1739 64.1214 23.9889 69.6216 31.6154V31.6154V31.6154C72.7611 35.9431 75.1446 40.7714 76.671 45.8954L77 47" stroke="#00897b" stroke-width="5"/>
<mask id="path-5-inside-2_13_174" fill="white">
<path d="M38.969 64.9891C39.0948 66.4045 38.8369 67.8245 38.2115 69.1604C37.586 70.4962 36.6065 71.719 35.3342 72.7525C34.0619 73.7859 32.5241 74.6077 30.8171 75.1665C29.11 75.7252 27.2704 76.0089 25.4133 75.9998C23.5561 75.9907 21.7214 75.6889 20.0239 75.1135C18.3264 74.538 16.8026 73.7012 15.5477 72.6553C14.2929 71.6095 13.3341 70.3771 12.7312 69.0353C12.1283 67.6934 11.8943 66.271 12.0439 64.857L17.0374 65.1652C16.9434 66.0545 17.0905 66.949 17.4697 67.7929C17.8488 68.6368 18.4519 69.4118 19.241 70.0696C20.0302 70.7273 20.9885 71.2536 22.0561 71.6155C23.1237 71.9774 24.2775 72.1672 25.4454 72.1729C26.6134 72.1786 27.7703 72.0002 28.8439 71.6488C29.9175 71.2974 30.8846 70.7806 31.6847 70.1307C32.4849 69.4807 33.1009 68.7117 33.4943 67.8716C33.8876 67.0315 34.0498 66.1384 33.9707 65.2483L38.969 64.9891Z"/>
</mask>
<path d="M38.969 64.9891C39.0948 66.4045 38.8369 67.8245 38.2115 69.1604C37.586 70.4962 36.6065 71.719 35.3342 72.7525C34.0619 73.7859 32.5241 74.6077 30.8171 75.1665C29.11 75.7252 27.2704 76.0089 25.4133 75.9998C23.5561 75.9907 21.7214 75.6889 20.0239 75.1135C18.3264 74.538 16.8026 73.7012 15.5477 72.6553C14.2929 71.6095 13.3341 70.3771 12.7312 69.0353C12.1283 67.6934 11.8943 66.271 12.0439 64.857L17.0374 65.1652C16.9434 66.0545 17.0905 66.949 17.4697 67.7929C17.8488 68.6368 18.4519 69.4118 19.241 70.0696C20.0302 70.7273 20.9885 71.2536 22.0561 71.6155C23.1237 71.9774 24.2775 72.1672 25.4454 72.1729C26.6134 72.1786 27.7703 72.0002 28.8439 71.6488C29.9175 71.2974 30.8846 70.7806 31.6847 70.1307C32.4849 69.4807 33.1009 68.7117 33.4943 67.8716C33.8876 67.0315 34.0498 66.1384 33.9707 65.2483L38.969 64.9891Z" fill="white" stroke="#00897b" stroke-width="10" mask="url(#path-5-inside-2_13_174)"/>
<path d="M14.486 65.2352L15.6705 59.3923" stroke="#00897b" stroke-width="5"/>
<path d="M36.5018 65.2633L34.9708 59.5629" stroke="#00897b" stroke-width="5"/>
<path d="M15.5073 60.1176L16.1578 58.0717C16.6041 56.6681 17.2552 55.3381 18.0902 54.1249L18.4811 53.557C18.7919 53.1054 19.1476 52.6863 19.5426 52.3061L19.8416 52.0183C23.1784 48.8073 28.5651 49.2082 31.3897 52.8778V52.8778V52.8778C32.9656 54.9132 34.1711 57.2101 34.9511 59.6632L35.0956 60.1176" stroke="#00897b" stroke-width="5"/>
<mask id="path-9-inside-3_13_174" fill="white">
<path d="M45.9805 81.2733C46.0597 82.138 45.8973 83.0055 45.5035 83.8216C45.1097 84.6376 44.493 85.3847 43.6919 86.016C42.8908 86.6474 41.9226 87.1494 40.8478 87.4908C39.773 87.8321 38.6147 88.0054 37.4454 87.9999C36.2761 87.9943 35.1209 87.81 34.0521 87.4584C32.9833 87.1069 32.0238 86.5956 31.2338 85.9567C30.4437 85.3178 29.84 84.5649 29.4604 83.7452C29.0808 82.9254 28.9334 82.0565 29.0276 81.1926L34.0333 81.4924C33.9948 81.8459 34.0551 82.2014 34.2104 82.5368C34.3657 82.8722 34.6128 83.1803 34.936 83.4417C35.2593 83.7032 35.6519 83.9123 36.0892 84.0562C36.5265 84.2 36.9992 84.2754 37.4777 84.2777C37.9561 84.28 38.43 84.2091 38.8698 84.0694C39.3096 83.9298 39.7058 83.7243 40.0336 83.466C40.3613 83.2077 40.6137 82.902 40.7748 82.5681C40.9359 82.2342 41.0024 81.8792 40.97 81.5254L45.9805 81.2733Z"/>
</mask>
<path d="M45.9805 81.2733C46.0597 82.138 45.8973 83.0055 45.5035 83.8216C45.1097 84.6376 44.493 85.3847 43.6919 86.016C42.8908 86.6474 41.9226 87.1494 40.8478 87.4908C39.773 87.8321 38.6147 88.0054 37.4454 87.9999C36.2761 87.9943 35.1209 87.81 34.0521 87.4584C32.9833 87.1069 32.0238 86.5956 31.2338 85.9567C30.4437 85.3178 29.84 84.5649 29.4604 83.7452C29.0808 82.9254 28.9334 82.0565 29.0276 81.1926L34.0333 81.4924C33.9948 81.8459 34.0551 82.2014 34.2104 82.5368C34.3657 82.8722 34.6128 83.1803 34.936 83.4417C35.2593 83.7032 35.6519 83.9123 36.0892 84.0562C36.5265 84.2 36.9992 84.2754 37.4777 84.2777C37.9561 84.28 38.43 84.2091 38.8698 84.0694C39.3096 83.9298 39.7058 83.7243 40.0336 83.466C40.3613 83.2077 40.6137 82.902 40.7748 82.5681C40.9359 82.2342 41.0024 81.8792 40.97 81.5254L45.9805 81.2733Z" fill="white" stroke="#00897b" stroke-width="10" mask="url(#path-9-inside-3_13_174)"/>
<path d="M31.509 81.5294L32.1448 77.7291" stroke="#00897b" stroke-width="5"/>
<path d="M43.4924 81.5681L42.6691 77.8622" stroke="#00897b" stroke-width="5"/>
<path d="M31.9485 78.4706L32.3212 77.2047C32.5617 76.3875 32.9161 75.6083 33.3739 74.8899L33.6251 74.4958C33.7815 74.2503 33.9619 74.0211 34.1637 73.8113L34.3173 73.6517C36.143 71.7542 39.2437 71.9824 40.772 74.1267V74.1267V74.1267C41.6482 75.3488 42.3124 76.7095 42.7371 78.152L42.8309 78.4706" stroke="#00897b" stroke-width="5"/>
</svg>
