<svg width="100" height="100" viewBox="0 0 100 100" fill="none" xmlns="http://www.w3.org/2000/svg">
<mask id="path-1-inside-1_23_2" fill="white">
<path d="M65.2351 47.4415C67.4049 51.9555 68.3913 56.9375 68.1034 61.9281C67.8155 66.9188 66.2625 71.7573 63.5877 75.9974C60.9129 80.2375 57.2024 83.7427 52.7985 86.1896C48.3946 88.6365 43.4391 89.9464 38.389 89.9984C33.3389 90.0504 28.3569 88.8428 23.9025 86.4871C19.4481 84.1314 15.6648 80.7034 12.9015 76.5193C10.1381 72.3352 8.48382 67.5297 8.09108 62.546C7.69834 57.5624 8.57984 52.5611 10.6543 48.0035L14.1033 49.5415C12.2898 53.5258 11.5192 57.8981 11.8625 62.2549C12.2059 66.6117 13.6521 70.8127 16.0679 74.4706C18.4837 78.1284 21.7911 81.1253 25.6853 83.1847C29.5794 85.2441 33.9347 86.2998 38.3496 86.2543C42.7645 86.2089 47.0968 85.0637 50.9468 82.9246C54.7968 80.7855 58.0405 77.7212 60.3789 74.0144C62.7173 70.3076 64.0749 66.0776 64.3266 61.7147C64.5783 57.3518 63.7159 52.9963 61.8191 49.0502L65.2351 47.4415Z"/>
</mask>
<path d="M65.2351 47.4415C67.4049 51.9555 68.3913 56.9375 68.1034 61.9281C67.8155 66.9188 66.2625 71.7573 63.5877 75.9974C60.9129 80.2375 57.2024 83.7427 52.7985 86.1896C48.3946 88.6365 43.4391 89.9464 38.389 89.9984C33.3389 90.0504 28.3569 88.8428 23.9025 86.4871C19.4481 84.1314 15.6648 80.7034 12.9015 76.5193C10.1381 72.3352 8.48382 67.5297 8.09108 62.546C7.69834 57.5624 8.57984 52.5611 10.6543 48.0035L14.1033 49.5415C12.2898 53.5258 11.5192 57.8981 11.8625 62.2549C12.2059 66.6117 13.6521 70.8127 16.0679 74.4706C18.4837 78.1284 21.7911 81.1253 25.6853 83.1847C29.5794 85.2441 33.9347 86.2998 38.3496 86.2543C42.7645 86.2089 47.0968 85.0637 50.9468 82.9246C54.7968 80.7855 58.0405 77.7212 60.3789 74.0144C62.7173 70.3076 64.0749 66.0776 64.3266 61.7147C64.5783 57.3518 63.7159 52.9963 61.8191 49.0502L65.2351 47.4415Z" stroke="#00897b" stroke-width="10" mask="url(#path-1-inside-1_23_2)"/>
<mask id="path-2-inside-2_23_2" fill="white">
<path d="M37.9292 12L65.5206 47.7221L62.0128 49.4577L37.9292 18.243L14.0152 49.9255L10.4588 48.356L37.9292 12Z"/>
</mask>
<path d="M37.9292 12L65.5206 47.7221L62.0128 49.4577L37.9292 18.243L14.0152 49.9255L10.4588 48.356L37.9292 12Z" fill="black"/>
<path d="M37.9292 12L41.8863 8.9436L37.8855 3.7639L33.9399 8.98574L37.9292 12ZM65.5206 47.7221L67.738 52.2035L73.2089 49.4964L69.4777 44.6657L65.5206 47.7221ZM10.4588 48.356L6.46954 45.3418L2.6622 50.3806L8.44014 52.9304L10.4588 48.356ZM37.9292 18.243L41.8879 15.1886L37.8856 10.0013L33.9384 15.2307L37.9292 18.243ZM14.0152 49.9255L11.9965 54.4998L15.62 56.0988L18.006 52.9377L14.0152 49.9255ZM62.0128 49.4577L58.0541 52.512L60.5574 55.7565L64.2302 53.9391L62.0128 49.4577ZM33.9721 15.0564L61.5635 50.7785L69.4777 44.6657L41.8863 8.9436L33.9721 15.0564ZM14.4481 51.3703L41.9185 15.0143L33.9399 8.98574L6.46954 45.3418L14.4481 51.3703ZM33.9384 15.2307L10.0244 46.9132L18.006 52.9377L41.92 21.2552L33.9384 15.2307ZM16.0339 45.3511L12.4775 43.7816L8.44014 52.9304L11.9965 54.4998L16.0339 45.3511ZM63.3032 43.2407L59.7954 44.9763L64.2302 53.9391L67.738 52.2035L63.3032 43.2407ZM65.9715 46.4034L41.8879 15.1886L33.9705 21.2973L58.0541 52.512L65.9715 46.4034Z" fill="#00897b" mask="url(#path-2-inside-2_23_2)"/>
<mask id="path-4-inside-3_23_2" fill="white">
<path d="M64.4419 11.8096C66.0668 11.5742 67.6905 11.7804 69.1584 12.4087C70.6263 13.0369 71.8896 14.0662 72.828 15.3987C73.7665 16.7312 74.3488 18.3225 74.5197 20.0212C74.6906 21.7199 74.4443 23.4695 73.8042 25.1035C73.1642 26.7374 72.1517 28.2014 70.8632 29.3561C69.5746 30.5108 68.0528 31.3178 66.4427 31.7003C64.8325 32.0828 63.1875 32.028 61.6641 31.5413C60.1408 31.0545 58.7899 30.1519 57.7399 28.9194L60.0859 26.6396C60.7981 27.4756 61.7143 28.0878 62.7476 28.4179C63.7808 28.7481 64.8965 28.7852 65.9887 28.5258C67.0808 28.2664 68.113 27.719 68.987 26.9358C69.8609 26.1526 70.5477 25.1597 70.9818 24.0514C71.4159 22.9431 71.583 21.7564 71.4671 20.6043C71.3512 19.4521 70.9562 18.3727 70.3197 17.469C69.6832 16.5652 68.8263 15.867 67.8307 15.4409C66.8351 15.0148 65.7338 14.8749 64.6316 15.0346L64.4419 11.8096Z"/>
</mask>
<path d="M64.4419 11.8096C66.0668 11.5742 67.6905 11.7804 69.1584 12.4087C70.6263 13.0369 71.8896 14.0662 72.828 15.3987C73.7665 16.7312 74.3488 18.3225 74.5197 20.0212C74.6906 21.7199 74.4443 23.4695 73.8042 25.1035C73.1642 26.7374 72.1517 28.2014 70.8632 29.3561C69.5746 30.5108 68.0528 31.3178 66.4427 31.7003C64.8325 32.0828 63.1875 32.028 61.6641 31.5413C60.1408 31.0545 58.7899 30.1519 57.7399 28.9194L60.0859 26.6396C60.7981 27.4756 61.7143 28.0878 62.7476 28.4179C63.7808 28.7481 64.8965 28.7852 65.9887 28.5258C67.0808 28.2664 68.113 27.719 68.987 26.9358C69.8609 26.1526 70.5477 25.1597 70.9818 24.0514C71.4159 22.9431 71.583 21.7564 71.4671 20.6043C71.3512 19.4521 70.9562 18.3727 70.3197 17.469C69.6832 16.5652 68.8263 15.867 67.8307 15.4409C66.8351 15.0148 65.7338 14.8749 64.6316 15.0346L64.4419 11.8096Z" stroke="#00897b" stroke-width="10" mask="url(#path-4-inside-3_23_2)"/>
<mask id="path-5-inside-4_23_2" fill="white">
<path d="M51.4139 15.43L65.3357 11.5794L65.9842 13.455L66.3278 14.707L60.1726 16.2827L55.3243 17.3309L57.5781 21.6198L60.3405 27.0232L58.0972 29.4981L51.4139 15.43Z"/>
</mask>
<path d="M51.4139 15.43L65.3357 11.5794L65.9842 13.455L66.3278 14.707L60.1726 16.2827L55.3243 17.3309L57.5781 21.6198L60.3405 27.0232L58.0972 29.4981L51.4139 15.43Z" fill="#C4C4C4"/>
<path d="M51.4139 15.43L48.7482 5.79184L37.272 8.96595L42.3814 19.721L51.4139 15.43ZM65.3357 11.5794L74.7866 8.31156L71.7186 -0.561416L62.6699 1.94131L65.3357 11.5794ZM58.0972 29.4981L49.0646 33.7891L55.4744 47.2816L65.5064 36.214L58.0972 29.4981ZM55.3243 17.3309L53.2111 7.55676L40.3521 10.3368L46.4721 21.9828L55.3243 17.3309ZM60.3405 27.0232L67.7497 33.7391L72.3886 28.6213L69.2444 22.4712L60.3405 27.0232ZM66.3278 14.707L68.8079 24.3945L78.6644 21.8712L75.9711 12.0598L66.3278 14.707ZM57.5781 21.6198L66.482 17.0678L66.4564 17.0177L66.4302 16.9679L57.5781 21.6198ZM60.1726 16.2827L62.2857 26.0569L62.47 26.0171L62.6527 25.9703L60.1726 16.2827ZM65.9842 13.455L75.6274 10.8078L75.5414 10.4943L75.4351 10.1871L65.9842 13.455ZM54.0797 25.0681L68.0014 21.2176L62.6699 1.94131L48.7482 5.79184L54.0797 25.0681ZM67.1297 25.2071L60.4465 11.1389L42.3814 19.721L49.0646 33.7891L67.1297 25.2071ZM52.9313 20.3073L50.6879 22.7822L65.5064 36.214L67.7497 33.7391L52.9313 20.3073ZM46.4721 21.9828L48.7259 26.2716L66.4302 16.9679L64.1764 12.6791L46.4721 21.9828ZM48.6742 26.1718L51.4366 31.5752L69.2444 22.4712L66.482 17.0678L48.6742 26.1718ZM63.8478 5.01938L57.6925 6.59516L62.6527 25.9703L68.8079 24.3945L63.8478 5.01938ZM58.0594 6.50856L53.2111 7.55676L57.4374 27.1051L62.2857 26.0569L58.0594 6.50856ZM55.8847 14.8473L56.5332 16.7229L75.4351 10.1871L74.7866 8.31156L55.8847 14.8473ZM56.3409 16.1021L56.6846 17.3541L75.9711 12.0598L75.6274 10.8078L56.3409 16.1021Z" fill="#00897b" mask="url(#path-5-inside-4_23_2)"/>
<mask id="path-7-inside-5_23_2" fill="white">
<path d="M83.4797 36.5524C84.6622 37.3249 85.5926 38.3816 86.1824 39.622C86.7723 40.8625 87.0019 42.2453 86.8494 43.639C86.6969 45.0327 86.1674 46.3909 85.3113 47.5842C84.4552 48.7776 83.301 49.7664 81.9585 50.4567C80.6159 51.147 79.1298 51.5157 77.6414 51.5278C76.153 51.5398 74.712 51.1949 73.4554 50.5257C72.1988 49.8565 71.1684 48.8853 70.4623 47.7046C69.7563 46.524 69.398 45.173 69.4217 43.7804L72.2324 43.6438C72.2164 44.5884 72.4593 45.5047 72.9382 46.3055C73.4171 47.1064 74.116 47.7651 74.9683 48.219C75.8206 48.6728 76.7981 48.9068 77.8076 48.8986C78.8171 48.8905 79.8251 48.6404 80.7357 48.1722C81.6463 47.704 82.4292 47.0333 83.0098 46.2239C83.5905 45.4144 83.9496 44.4933 84.053 43.548C84.1565 42.6027 84.0007 41.6647 83.6007 40.8234C83.2006 39.982 82.5695 39.2653 81.7675 38.7413L83.4797 36.5524Z"/>
</mask>
<path d="M83.4797 36.5524C84.6622 37.3249 85.5926 38.3816 86.1824 39.622C86.7723 40.8625 87.0019 42.2453 86.8494 43.639C86.6969 45.0327 86.1674 46.3909 85.3113 47.5842C84.4552 48.7776 83.301 49.7664 81.9585 50.4567C80.6159 51.147 79.1298 51.5157 77.6414 51.5278C76.153 51.5398 74.712 51.1949 73.4554 50.5257C72.1988 49.8565 71.1684 48.8853 70.4623 47.7046C69.7563 46.524 69.398 45.173 69.4217 43.7804L72.2324 43.6438C72.2164 44.5884 72.4593 45.5047 72.9382 46.3055C73.4171 47.1064 74.116 47.7651 74.9683 48.219C75.8206 48.6728 76.7981 48.9068 77.8076 48.8986C78.8171 48.8905 79.8251 48.6404 80.7357 48.1722C81.6463 47.704 82.4292 47.0333 83.0098 46.2239C83.5905 45.4144 83.9496 44.4933 84.053 43.548C84.1565 42.6027 84.0007 41.6647 83.6007 40.8234C83.2006 39.982 82.5695 39.2653 81.7675 38.7413L83.4797 36.5524Z" stroke="#00897b" stroke-width="10" mask="url(#path-7-inside-5_23_2)"/>
<mask id="path-8-inside-6_23_2" fill="white">
<path d="M73.0134 31.4771L84.1873 36.9122L83.5388 38.4914L83.0484 39.4948L78.1801 37.01L74.4552 34.9283L73.4697 38.978L72.1784 44.0362L69.3229 44.357L73.0134 31.4771Z"/>
</mask>
<path d="M73.0134 31.4771L84.1873 36.9122L83.5388 38.4914L83.0484 39.4948L78.1801 37.01L74.4552 34.9283L73.4697 38.978L72.1784 44.0362L69.3229 44.357L73.0134 31.4771Z" fill="#C4C4C4"/>
<path d="M73.0134 31.4771L77.3875 22.4845L66.6799 17.2763L63.4002 28.7227L73.0134 31.4771ZM84.1873 36.9122L93.4377 40.7109L97.0041 32.0262L88.5614 27.9196L84.1873 36.9122ZM69.3229 44.357L59.7097 41.6025L55.5952 55.9624L70.4394 54.2945L69.3229 44.357ZM74.4552 34.9283L79.3338 26.1991L67.8496 19.7808L64.7388 32.5638L74.4552 34.9283ZM72.1784 44.0362L73.2949 53.9736L80.159 53.2024L81.8676 46.5098L72.1784 44.0362ZM83.0484 39.4948L78.5023 48.4017L87.5645 53.0271L92.0325 43.8863L83.0484 39.4948ZM73.4697 38.978L83.159 41.4516L83.1729 41.3971L83.1862 41.3425L73.4697 38.978ZM78.1801 37.01L73.3015 45.7393L73.4661 45.8312L73.634 45.9169L78.1801 37.01ZM83.5388 38.4914L92.523 42.8829L92.6658 42.5908L92.7893 42.2901L83.5388 38.4914ZM68.6393 40.4697L79.8132 45.9049L88.5614 27.9196L77.3875 22.4845L68.6393 40.4697ZM78.9361 47.1115L82.6265 34.2316L63.4002 28.7227L59.7097 41.6025L78.9361 47.1115ZM71.0618 34.0987L68.2063 34.4195L70.4394 54.2945L73.2949 53.9736L71.0618 34.0987ZM64.7388 32.5638L63.7533 36.6135L83.1862 41.3425L84.1717 37.2928L64.7388 32.5638ZM63.7805 36.5043L62.4892 41.5625L81.8676 46.5098L83.159 41.4516L63.7805 36.5043ZM87.5944 30.5879L82.7261 28.1031L73.634 45.9169L78.5023 48.4017L87.5944 30.5879ZM83.0586 28.2808L79.3338 26.1991L69.5766 43.6575L73.3015 45.7393L83.0586 28.2808ZM74.9369 33.1136L74.2884 34.6927L92.7893 42.2901L93.4377 40.7109L74.9369 33.1136ZM74.5547 34.0999L74.0642 35.1033L92.0325 43.8863L92.523 42.8829L74.5547 34.0999Z" fill="#00897b" mask="url(#path-8-inside-6_23_2)"/>
</svg>
