<svg width="100" height="100" viewBox="0 0 100 100" fill="none" xmlns="http://www.w3.org/2000/svg">
<path d="M40 53L24 39.5L40 26" stroke="black" stroke-width="5" stroke-linecap="round" stroke-linejoin="round"/>
<path d="M73.5 64V66.5H78.5V64H73.5ZM63.75 40V37.5V40ZM27 37.5C25.6193 37.5 24.5 38.6193 24.5 40C24.5 41.3807 25.6193 42.5 27 42.5V37.5ZM78.5 64V48.7273H73.5V64H78.5ZM78.5 48.7273C78.5 45.4233 76.6559 42.51 73.8626 40.52L70.9615 44.5923C72.7629 45.8757 73.5 47.402 73.5 48.7273H78.5ZM73.8626 40.52C71.0798 38.5374 67.4372 37.5 63.75 37.5L63.75 42.5C66.5606 42.5 69.1497 43.3015 70.9615 44.5923L73.8626 40.52ZM63.75 37.5H27V42.5H63.75V37.5Z" fill="black"/>
<path d="M73.5 54V51.5H78.5V54H73.5ZM63.5 76V78.5V76ZM26 78.5C24.6193 78.5 23.5 77.3807 23.5 76C23.5 74.6193 24.6193 73.5 26 73.5V78.5ZM78.5 54V68H73.5V54H78.5ZM78.5 68C78.5 71.235 76.4972 73.9636 73.6865 75.7625L70.9912 71.5512C72.8688 70.3495 73.5 69.0084 73.5 68H78.5ZM73.6865 75.7625C70.8686 77.566 67.2004 78.5 63.5 78.5L63.5 73.5C66.43 73.5 69.1207 72.7483 70.9912 71.5512L73.6865 75.7625ZM63.5 78.5H26V73.5H63.5V78.5Z" fill="black"/>
</svg>
