<svg width="100" height="100" viewBox="0 0 100 100" fill="none" xmlns="http://www.w3.org/2000/svg">
<mask id="path-1-inside-1_11_103" fill="white">
<path d="M63.0547 55.0285C67.1329 57.7242 70.188 61.5657 71.7773 65.9962C73.3666 70.4266 73.4075 75.2158 71.8941 79.6694C70.3807 84.1231 67.3915 88.0099 63.36 90.7663C59.3284 93.5227 54.464 95.0056 49.4717 95C44.4795 94.9944 39.6188 93.5005 35.5944 90.735C31.5699 87.9695 28.5908 84.076 27.0888 79.619C25.5868 75.1619 25.64 70.3728 27.2408 65.946C28.8415 61.5191 31.9065 57.6845 35.9915 54.998L39.0366 59.056C35.8724 61.137 33.4983 64.1072 32.2585 67.5361C31.0186 70.9651 30.9774 74.6745 32.1408 78.1269C33.3042 81.5792 35.6118 84.595 38.729 86.7372C41.8463 88.8793 45.6112 90.0364 49.4781 90.0407C53.345 90.0451 57.1129 88.8965 60.2356 86.7614C63.3584 84.6263 65.6737 81.6157 66.846 78.166C68.0183 74.7163 67.9866 71.0067 66.7555 67.575C65.5245 64.1433 63.158 61.1677 59.9992 59.0797L63.0547 55.0285Z"/>
</mask>
<path d="M63.0547 55.0285C67.1329 57.7242 70.188 61.5657 71.7773 65.9962C73.3666 70.4266 73.4075 75.2158 71.8941 79.6694C70.3807 84.1231 67.3915 88.0099 63.36 90.7663C59.3284 93.5227 54.464 95.0056 49.4717 95C44.4795 94.9944 39.6188 93.5005 35.5944 90.735C31.5699 87.9695 28.5908 84.076 27.0888 79.619C25.5868 75.1619 25.64 70.3728 27.2408 65.946C28.8415 61.5191 31.9065 57.6845 35.9915 54.998L39.0366 59.056C35.8724 61.137 33.4983 64.1072 32.2585 67.5361C31.0186 70.9651 30.9774 74.6745 32.1408 78.1269C33.3042 81.5792 35.6118 84.595 38.729 86.7372C41.8463 88.8793 45.6112 90.0364 49.4781 90.0407C53.345 90.0451 57.1129 88.8965 60.2356 86.7614C63.3584 84.6263 65.6737 81.6157 66.846 78.166C68.0183 74.7163 67.9866 71.0067 66.7555 67.575C65.5245 64.1433 63.158 61.1677 59.9992 59.0797L63.0547 55.0285Z" stroke="#00897b" stroke-width="10" mask="url(#path-1-inside-1_11_103)"/>
<path d="M36.5 20L36.5 59" stroke="#00897b" stroke-width="5"/>
<path d="M62.5 20L62.5 59" stroke="#00897b" stroke-width="5"/>
<path d="M36.5 20.5V18.5431C36.5 14.8141 39.2955 11.6774 43 11.25V11.25V11.25C47.319 10.7517 51.681 10.7517 56 11.25V11.25V11.25C59.7045 11.6774 62.5 14.8141 62.5 18.5431V20.5" stroke="#00897b" stroke-width="5"/>
<circle cx="49.5" cy="71.5" r="9" stroke="#00897b" stroke-width="7"/>
<line x1="49.5" y1="59.5" x2="49.5" y2="20.5" stroke="#00897b" stroke-width="7" stroke-linecap="round"/>
<line x1="70" y1="18.5" x2="80" y2="18.5" stroke="#00897b" stroke-width="3"/>
<line x1="70" y1="24.5" x2="90" y2="24.5" stroke="#00897b" stroke-width="3"/>
<line x1="70" y1="30.5" x2="80" y2="30.5" stroke="#00897b" stroke-width="3"/>
<line x1="70" y1="42.5" x2="80" y2="42.5" stroke="#00897b" stroke-width="3"/>
<line x1="70" y1="36.5" x2="90" y2="36.5" stroke="#00897b" stroke-width="3"/>
</svg>
