<?xml version="1.0" ?><svg id="Layer_1" style="enable-background:new 0 0 64 64;" version="1.1" viewBox="0 0 64 64" xml:space="preserve" xmlns="http://www.w3.org/2000/svg" xmlns:xlink="http://www.w3.org/1999/xlink"><style type="text/css">
	.st0{fill:#231F20;}
</style><path class="st0" d="M34.1,53.5c-0.2-0.2-0.3-0.5-0.3-0.7s0.1-0.5,0.3-0.7l16.3-16.3H11.2c-0.6,0-1-0.4-1-1s0.4-1,1-1h39.3  L34.1,17.5c-0.2-0.2-0.3-0.5-0.3-0.7s0.1-0.5,0.3-0.7c0.4-0.4,1-0.4,1.4,0l18,18c0.1,0.1,0.2,0.2,0.2,0.3c0.1,0.2,0.1,0.5,0,0.8  c-0.1,0.1-0.1,0.2-0.2,0.3l-18,18C35.2,53.9,34.5,53.9,34.1,53.5z"/></svg>